<svg width="308" height="248" viewBox="0 0 308 248" fill="none" xmlns="http://www.w3.org/2000/svg">
<g clip-path="url(#clip0_4002_14505)">
<rect width="308" height="248" rx="24" fill="#FFF4E0"/>
<path d="M31.222 -48.8635C1.53986 -15.9081 -16.9176 33.8526 -18.8843 79.151C-20.0978 106.189 -10.7508 211.601 32.4441 201.357C38.7305 199.895 42.8233 194.08 46.4354 188.542C83.4933 131.173 112.376 65.1961 120.321 -8.04465C121.706 -21.049 122.528 -34.6118 118.521 -47.7957C108.84 -80.1059 84.81 -87.5913 60.7 -73.4305C50.0143 -67.1005 40.1061 -58.7302 31.222 -48.8635Z" fill="#FFEBC2"/>
<path d="M472.173 63.8617C416.609 -84.2312 127.543 160.45 76.1295 222.791C30.0718 278.576 -28.9732 419.98 84.1629 441.92C173.199 459.177 294.503 364.997 356.225 309.345C406.835 263.861 474.047 168.343 476.859 97.8415C477.529 84.5974 475.788 73.3599 472.173 63.8617Z" fill="#FFEBC2"/>
<path d="M139.229 26.7225C138.922 22.7986 138.987 18.8526 139.537 14.9507C139.955 11.9967 135.424 10.7181 135.006 13.6941C134.391 18.0369 134.193 22.3356 134.545 26.7005C134.765 29.7206 139.471 29.7427 139.229 26.7225Z" fill="#ED7E1C"/>
<path d="M149.413 28.0451C151.128 23.6362 153.306 19.4477 155.879 15.4797C157.528 12.9225 153.459 10.5637 151.832 13.0989C149.039 17.4196 146.751 21.9829 144.882 26.7886C143.782 29.6324 148.313 30.8448 149.413 28.0451Z" fill="#ED7E1C"/>
<path d="M158.517 32.8083C162.696 30.163 166.391 26.9004 169.471 23.0205C171.34 20.6617 168.019 17.3109 166.15 19.6918C163.312 23.263 160.013 26.3052 156.164 28.7521C153.591 30.3614 155.944 34.4396 158.517 32.8083Z" fill="#ED7E1C"/>
<path d="M189.77 117.656H59.1005C53.162 117.656 48.3672 112.829 48.3672 106.877V55.1158C48.3672 49.1637 53.184 44.3359 59.1005 44.3359H189.77C195.708 44.3359 200.525 49.1637 200.525 55.1158V106.899C200.525 112.829 195.708 117.656 189.77 117.656Z" fill="#928D86"/>
<path d="M59.0139 129.251C85.5313 129.251 107.028 107.705 107.028 81.1274C107.028 54.5495 85.5313 33.0039 59.0139 33.0039C32.4966 33.0039 11 54.5495 11 81.1274C11 107.705 32.4966 129.251 59.0139 129.251Z" fill="#928D86"/>
<path d="M95.2324 89.952C100.093 69.9113 87.8237 49.716 67.8287 44.8446C47.8336 39.9731 27.6843 52.2702 22.8239 72.3108C17.9636 92.3515 30.2326 112.547 50.2277 117.418C70.2227 122.29 90.372 109.993 95.2324 89.952Z" fill="#3F3C36"/>
<path d="M25.0547 81.1282C25.0547 99.6457 39.813 114.702 58.1784 115.143V47.1133C39.813 47.5542 25.0547 62.6107 25.0547 81.1282Z" fill="#FFEBC2"/>
<path d="M59.0155 47.0938C58.7296 47.0938 58.4656 47.1158 58.1797 47.1158V115.146C58.4656 115.146 58.7296 115.168 59.0155 115.168C77.7768 115.168 92.975 99.9348 92.975 81.1307C92.975 62.3266 77.7768 47.0938 59.0155 47.0938Z" fill="#928D86"/>
<path d="M182.314 111.285H129.285C127.019 111.285 125.172 109.433 125.172 107.163V54.013C125.172 51.7424 127.019 49.8906 129.285 49.8906H182.314C184.579 49.8906 186.426 51.7424 186.426 54.013V107.163C186.426 109.433 184.579 111.285 182.314 111.285Z" fill="#3F3C36"/>
<path d="M136.92 68.8954C140.783 68.8954 143.914 65.7568 143.914 61.8852C143.914 58.0136 140.783 54.875 136.92 54.875C133.057 54.875 129.926 58.0136 129.926 61.8852C129.926 65.7568 133.057 68.8954 136.92 68.8954Z" fill="#FFEBC2"/>
<path d="M155.221 68.8954C159.084 68.8954 162.215 65.7568 162.215 61.8852C162.215 58.0136 159.084 54.875 155.221 54.875C151.358 54.875 148.227 58.0136 148.227 61.8852C148.227 65.7568 151.358 68.8954 155.221 68.8954Z" fill="#FFEBC2"/>
<path d="M180.535 61.8852C180.535 65.7651 177.39 68.8954 173.541 68.8954C169.67 68.8954 166.547 65.743 166.547 61.8852C166.547 58.0053 169.692 54.875 173.541 54.875C177.39 54.875 180.535 58.0053 180.535 61.8852Z" fill="#FFEBC2"/>
<path d="M142.439 84.8816C144.81 81.8245 144.259 77.4202 141.209 75.0442C138.159 72.6681 133.765 73.2202 131.394 76.2772C129.023 79.3343 129.574 83.7386 132.624 86.1147C135.674 88.4907 140.069 87.9386 142.439 84.8816Z" fill="#FFEBC2"/>
<path d="M160.157 85.5429C162.889 82.8052 162.889 78.3667 160.157 75.629C157.426 72.8914 152.997 72.8914 150.266 75.629C147.535 78.3667 147.535 82.8052 150.266 85.5429C152.997 88.2805 157.426 88.2805 160.157 85.5429Z" fill="#FFEBC2"/>
<path d="M180.531 80.5766C180.531 84.4565 177.386 87.5868 173.537 87.5868C169.666 87.5868 166.543 84.4344 166.543 80.5766C166.543 76.6968 169.688 73.5664 173.537 73.5664C177.386 73.5664 180.531 76.7188 180.531 80.5766Z" fill="#FFEBC2"/>
<path d="M143.688 101.089C144.682 97.3477 142.461 93.5073 138.728 92.5115C134.995 91.5157 131.164 93.7416 130.17 97.4832C129.176 101.225 131.397 105.065 135.13 106.061C138.863 107.057 142.695 104.831 143.688 101.089Z" fill="#FFEBC2"/>
<path d="M162.03 100.924C162.929 97.1593 160.613 93.3761 156.857 92.4744C153.1 91.5727 149.325 93.894 148.426 97.6591C147.526 101.424 149.842 105.208 153.599 106.109C157.355 107.011 161.13 104.69 162.03 100.924Z" fill="#FFEBC2"/>
<path d="M180.531 99.2955C180.531 103.175 177.386 106.306 173.537 106.306C169.666 106.306 166.543 103.153 166.543 99.2955C166.543 95.4156 169.688 92.2853 173.537 92.2853C177.386 92.2632 180.531 95.4156 180.531 99.2955Z" fill="#FFEBC2"/>
<path d="M135.754 58.9091C135.754 60.9372 135.754 62.9432 135.754 64.9713C135.754 66.272 137.777 66.272 137.777 64.9713C137.777 62.9432 137.777 60.9372 137.777 58.9091C137.777 57.6084 135.754 57.6084 135.754 58.9091Z" fill="#3F3C36"/>
<path d="M135.49 61.5984C136.304 61.1575 136.986 60.4741 137.426 59.6585C137.689 59.1735 137.535 58.5562 137.074 58.2696C136.612 58.0051 135.952 58.1594 135.688 58.6224C135.38 59.1955 135.028 59.5482 134.456 59.8348C133.972 60.0993 133.818 60.7607 134.104 61.2236C134.412 61.7086 135.028 61.8409 135.49 61.5984Z" fill="#3F3C36"/>
<path d="M154.271 59.813C154.579 58.7769 155.657 59.2839 155.525 60.1657C155.437 60.7168 154.887 61.2238 154.535 61.6206C153.81 62.3922 153.062 63.1197 152.336 63.8692C151.742 64.4644 152.16 65.6328 153.04 65.5887C154.579 65.5005 156.097 65.5226 157.637 65.5887C158.934 65.6548 158.934 63.6488 157.637 63.5826C156.097 63.4944 154.579 63.4944 153.04 63.5826C153.282 64.1558 153.524 64.7289 153.744 65.3021C155.305 63.7149 158.626 61.2679 157.285 58.6446C156.119 56.352 153.018 57.0574 152.358 59.306C151.962 60.5184 153.898 61.0695 154.271 59.813Z" fill="#3F3C36"/>
<path d="M173.516 59.1928C174.308 58.4874 174.66 58.6197 174.638 59.5676C174.418 60.0305 174.066 60.251 173.56 60.251C172.284 60.3392 172.262 62.3011 173.56 62.2791C174.506 62.2571 175.121 63.1829 174.418 63.9545C173.714 64.726 172.768 64.219 172.218 63.5797C171.382 62.5877 169.953 64.0206 170.789 65.0126C172.328 66.8423 175.275 66.8203 176.419 64.5497C177.475 62.4775 175.781 60.1848 173.56 60.251C173.56 60.9344 173.56 61.5957 173.56 62.2791C175.737 62.1468 177.541 59.9865 176.243 57.8702C175.011 55.8641 172.108 56.4813 171.558 58.6638C171.272 59.8983 173.208 60.4494 173.516 59.1928Z" fill="#3F3C36"/>
<path d="M135.202 76.632C134.608 78.0428 134.015 79.4757 133.421 80.8866C133.157 81.5038 133.795 82.1652 134.388 82.1652C135.488 82.1431 136.566 82.1431 137.666 82.1211C138.963 82.099 138.963 80.093 137.666 80.115C136.566 80.1371 135.488 80.1371 134.388 80.1591C134.718 80.578 135.026 81.0189 135.356 81.4377C135.95 80.0269 136.544 78.594 137.138 77.1831C137.358 76.6761 136.918 76.0809 136.434 75.9486C135.862 75.7502 135.422 76.1249 135.202 76.632Z" fill="#3F3C36"/>
<path d="M136.656 78.6591C136.656 80.3786 136.656 82.098 136.656 83.8175C136.656 85.1182 138.658 85.1182 138.658 83.8175C138.658 82.098 138.658 80.3786 138.658 78.6591C138.68 77.3584 136.656 77.3584 136.656 78.6591Z" fill="#3F3C36"/>
<path d="M153.567 78.5492C154.381 78.5492 155.217 78.5492 156.03 78.5492C157.328 78.5492 157.328 76.5431 156.03 76.5431C155.217 76.5431 154.381 76.5431 153.567 76.5431C152.269 76.5211 152.269 78.5492 153.567 78.5492Z" fill="#3F3C36"/>
<path d="M152.555 77.975C152.555 78.7907 152.555 79.6284 152.555 80.444C152.555 81.7447 154.578 81.7447 154.578 80.444C154.578 79.6284 154.578 78.7907 154.578 77.975C154.578 76.6964 152.555 76.6744 152.555 77.975Z" fill="#3F3C36"/>
<path d="M154.096 82.1653C154.602 81.9669 155.24 81.7024 155.768 81.9669C156.054 82.1213 156.362 82.4519 156.164 82.7826C155.834 83.3337 154.558 83.2455 154.03 83.2235C152.733 83.1794 152.733 85.1855 154.03 85.2516C155.68 85.3177 157.901 84.9209 158.209 82.9589C158.363 81.9229 157.835 80.8868 156.956 80.3356C155.922 79.6743 154.646 79.7845 153.568 80.2254C153.063 80.4459 152.711 80.8868 152.865 81.4599C152.975 81.9449 153.59 82.3637 154.096 82.1653Z" fill="#3F3C36"/>
<path d="M173.054 77.2037C172.196 78.7469 170.745 80.5545 170.723 82.4063C170.723 83.773 171.58 85.0957 173.01 85.228C176.155 85.4925 176.661 80.797 173.56 80.3561C172.284 80.1798 171.756 82.1197 173.032 82.2961C173.45 82.3622 174.088 82.9574 173.428 83.1999C172.548 83.5085 172.79 82.0095 172.922 81.6568C173.362 80.4664 174.154 79.3421 174.792 78.2398C175.429 77.0935 173.692 76.0795 173.054 77.2037Z" fill="#3F3C36"/>
<path d="M134.984 97.8601C136.369 97.8601 137.755 97.8822 139.163 97.8822C138.877 97.3752 138.591 96.8681 138.283 96.3611C137.359 98.3451 136.523 100.351 135.754 102.401C135.314 103.614 137.249 104.143 137.689 102.93C138.393 101.035 139.163 99.1828 139.999 97.3752C140.306 96.6918 139.933 95.8541 139.141 95.8541C137.755 95.8541 136.369 95.832 134.962 95.832C133.686 95.8541 133.686 97.8601 134.984 97.8601Z" fill="#3F3C36"/>
<path d="M59.0136 99.78C69.2901 99.78 77.6209 91.4302 77.6209 81.1303C77.6209 70.8303 69.2901 62.4805 59.0136 62.4805C48.737 62.4805 40.4062 70.8303 40.4062 81.1303C40.4062 91.4302 48.737 99.78 59.0136 99.78Z" fill="#3F3C36"/>
<path d="M63.7664 59.7453C63.5684 56.5268 63.6344 53.3303 63.9423 50.1118C64.0743 48.8111 62.0508 48.8332 61.9408 50.1118C61.6109 53.3082 61.5449 56.5268 61.7649 59.7453C61.8309 61.0239 63.8544 61.0459 63.7664 59.7453Z" fill="#FFEBC2"/>
<path d="M61.2148 102.69C61.2148 106.063 61.2148 109.436 61.2148 112.787C61.2148 114.087 63.2163 114.087 63.2163 112.787C63.2163 109.414 63.2163 106.041 63.2163 102.69C63.2163 101.39 61.2148 101.39 61.2148 102.69Z" fill="#FFEBC2"/>
<path d="M98.5162 50.1336C104.059 50.1336 109.601 50.1336 115.144 50.1336C116.442 50.1336 116.442 48.1055 115.144 48.1055C109.601 48.1055 104.059 48.1055 98.5162 48.1055C97.2186 48.1275 97.2186 50.1336 98.5162 50.1336Z" fill="#FFEBC2"/>
<path d="M115.276 92.2627H106.192C104.234 92.2627 102.629 90.6534 102.629 88.6914V67.2861C102.629 65.3241 104.234 63.7148 106.192 63.7148H115.276C117.233 63.7148 118.839 65.3241 118.839 67.2861V88.6914C118.839 90.6534 117.233 92.2627 115.276 92.2627Z" fill="#3F3C36"/>
<path d="M102.543 80.5782C102.543 87.0373 82.8582 92.2619 58.5763 92.2619C34.2944 92.2619 14.6094 87.0373 14.6094 80.5782C14.6094 74.1191 34.2944 68.8945 58.5763 68.8945C82.8582 68.9166 102.543 74.1412 102.543 80.5782Z" fill="#928D86"/>
<path d="M101.53 80.5766C101.332 84.2801 94.9094 86.1759 92.1821 87.0577C85.6717 89.1519 78.7875 90.1219 72.0132 90.6951C57.0789 91.9737 41.023 91.7091 26.5286 87.5206C23.4274 86.6389 17.1589 85.0737 15.8393 81.5245C14.5416 78.0194 20.4801 75.7488 22.8115 74.867C36.2062 69.7526 51.9542 69.444 66.0747 70.0833C74.0367 70.436 82.1086 71.2958 89.8067 73.4121C92.9739 74.2718 101.31 76.2338 101.53 80.5766C101.596 81.8772 103.619 81.8772 103.531 80.5766C103.333 76.7849 99.2203 74.7347 96.1631 73.4341C89.4548 70.5903 82.0207 69.4661 74.8285 68.7165C64.9749 67.6804 54.9894 67.5923 45.1139 68.452C37.4379 69.1134 29.4978 70.1715 22.2397 72.9271C19.1824 74.0954 14.4756 75.9913 13.6838 79.6507C12.892 83.2881 16.7191 85.735 19.4904 87.0797C25.3629 89.9235 32.0492 91.1139 38.4496 91.9957C48.3691 93.3404 58.4646 93.605 68.4501 92.9877C77.0499 92.4586 85.9797 91.4446 94.1396 88.5127C97.6807 87.2341 103.267 85.0737 103.509 80.5986C103.619 79.298 101.618 79.298 101.53 80.5766Z" fill="#3F3C36"/>
<path d="M25.3188 79.5849C29.6737 77.6009 34.2485 76.5648 39.0213 76.4326C40.319 76.3885 40.319 74.3824 39.0213 74.4265C33.8746 74.5588 28.9699 75.7271 24.285 77.8434C23.1193 78.3945 24.1531 80.1361 25.3188 79.5849Z" fill="#FFEBC2"/>
<path d="M46.1017 75.6597C57.6708 74.7118 69.2619 74.7559 80.831 75.77C82.1287 75.8802 82.1067 73.8741 80.831 73.7639C69.2619 72.7498 57.6708 72.7278 46.1017 73.6537C44.8261 73.7639 44.8041 75.77 46.1017 75.6597Z" fill="#FFEBC2"/>
<path d="M269.744 302.081C222.764 267.294 168.086 200.058 162.895 162.428C162.587 160.157 159.662 159.452 158.298 161.281C153.174 168.203 145.718 177.506 141.561 180.063C141.033 180.394 140.483 180.659 139.867 180.791C136.964 181.496 135.842 179.27 135.512 177.242C134.874 173.207 136.436 169.173 137.976 165.36C142.858 153.345 147.741 141.331 153.02 129.493C154.449 126.296 155.967 123.034 158.43 120.543C165.623 113.312 179.193 112.871 187.067 119.33C177.588 112.849 171.935 108.661 167.008 106.104C159.024 101.981 155.703 101.386 141.737 99.6886C135.952 100.46 132.015 93.3838 136.216 89.3276C137.932 87.6742 140.153 86.4397 143.012 86.6381C179.567 88.9969 185.352 96.8228 215.088 117.743C208.71 111.042 202.881 103.811 197.669 96.1614C196.965 95.1253 196.591 93.8908 196.767 92.6563C197.471 87.7183 205.367 88.9087 208.776 92.4138C282.457 168.181 296.05 190.821 369.071 242.075L269.744 302.081Z" fill="#F6A460"/>
<path d="M234.003 128.945C226.525 123.742 219.464 117.989 212.822 111.728C211.876 110.846 210.447 112.257 211.392 113.161C218.145 119.532 225.359 125.396 232.969 130.709C234.047 131.414 235.058 129.673 234.003 128.945Z" fill="#4F3422"/>
<path d="M212.314 96.1641C208.157 97.2443 203.78 94.7533 202.592 90.6089C202.24 89.3744 200.283 89.9035 200.657 91.138C202.152 96.3184 207.651 99.4708 212.864 98.1041C214.117 97.7954 213.567 95.8335 212.314 96.1641Z" fill="#4F3422"/>
<path d="M205.803 131.765C198.369 126.364 190.935 120.963 183.523 115.562C182.467 114.791 181.477 116.554 182.511 117.304C189.945 122.705 197.379 128.106 204.792 133.507C205.847 134.256 206.859 132.515 205.803 131.765Z" fill="#4F3422"/>
<path d="M190.936 142.765C185.459 137.144 179.322 131.853 172.064 128.701C167.335 126.65 161.727 125.085 156.954 127.819C150.488 131.5 146.133 140.252 144.307 147.24C143.977 148.497 145.913 149.026 146.243 147.769C147.848 141.575 151.521 134.212 156.712 130.376C161.683 126.695 167.995 128.855 173.032 131.368C179.3 134.498 184.645 139.194 189.506 144.176C190.43 145.124 191.837 143.691 190.936 142.765Z" fill="#4F3422"/>
<path d="M180.62 158.286C174.131 152.532 168.347 143.207 159.043 141.929C150.619 140.782 142.085 148.3 140.568 156.346C140.326 157.625 142.261 158.154 142.503 156.875C144.131 148.278 153.896 141.179 162.386 144.971C169.249 148.035 173.713 154.847 179.19 159.697C180.158 160.556 181.587 159.146 180.62 158.286Z" fill="#4F3422"/>
<path d="M139.14 167.587C140.988 171.159 139.338 175.898 135.599 177.441C134.411 177.926 134.939 179.888 136.127 179.381C141.098 177.331 143.363 171.379 140.878 166.551C140.284 165.427 138.546 166.441 139.14 167.587Z" fill="#4F3422"/>
<path d="M146.573 87.3912C144.461 90.7861 139.535 91.8002 136.301 89.3532C135.29 88.5816 133.86 90.0145 134.894 90.8082C139.183 94.0487 145.451 92.9685 148.31 88.3612C149.014 87.281 147.255 86.289 146.573 87.3912Z" fill="#4F3422"/>
<path d="M221.84 130.729C220.477 132.317 219.135 133.904 217.771 135.491C216.936 136.461 218.343 137.894 219.201 136.924C220.565 135.337 221.906 133.75 223.27 132.162C224.106 131.17 222.698 129.737 221.84 130.729Z" fill="white"/>
<path d="M211.127 147.066C209.059 148.367 207.542 150.197 206.618 152.445C206.112 153.636 208.07 154.165 208.553 152.974C209.279 151.233 210.555 149.8 212.139 148.808C213.238 148.124 212.227 146.383 211.127 147.066Z" fill="white"/>
<path d="M199.714 161.042C198.548 162.982 197.36 164.922 196.195 166.862C195.513 167.964 197.251 168.978 197.932 167.876C199.098 165.936 200.286 163.996 201.451 162.056C202.133 160.954 200.396 159.94 199.714 161.042Z" fill="white"/>
<path d="M262.331 306.029C241.678 290.025 223.445 270.912 208.379 249.551C207.411 248.184 207.851 246.266 209.324 245.495C224.962 237.316 280.455 192.742 293.541 179.691C302.955 193.05 353.894 232.577 375.691 245.715L262.331 306.029Z" fill="#9BB168"/>
<path d="M301.879 204.734C301.879 208.46 298.865 211.48 295.148 211.48C291.431 211.48 288.418 208.46 288.418 204.734C288.418 201.009 291.431 197.988 295.148 197.988C298.843 197.966 301.879 200.986 301.879 204.734Z" fill="white"/>
<path d="M313.433 221.141C316.062 218.507 316.062 214.236 313.433 211.601C310.805 208.967 306.544 208.967 303.915 211.601C301.287 214.236 301.287 218.507 303.915 221.141C306.544 223.775 310.805 223.775 313.433 221.141Z" fill="white"/>
</g>
<defs>
<clipPath id="clip0_4002_14505">
<rect width="308" height="248" rx="24" fill="white"/>
</clipPath>
</defs>
</svg>
