<svg width="25" height="24" viewBox="0 0 25 24" fill="none" xmlns="http://www.w3.org/2000/svg">
    <path d="M8.13287 11.9458C8.13287 9.74672 9.91606 7.96355 12.1163 7.96355C14.3166 7.96355 16.1007 9.74672 16.1007 11.9458C16.1007 14.1449 14.3166 15.9281 12.1163 15.9281C9.91606 15.9281 8.13287 14.1449 8.13287 11.9458ZM5.97898 11.9458C5.97898 15.3336 8.72666 18.0798 12.1163 18.0798C15.506 18.0798 18.2537 15.3336 18.2537 11.9458C18.2537 8.55797 15.506 5.81178 12.1163 5.81178C8.72666 5.81178 5.97898 8.55797 5.97898 11.9458ZM17.0624 5.56856C17.0622 5.85208 17.1463 6.12926 17.3038 6.36506C17.4613 6.60086 17.6852 6.78469 17.9472 6.89329C18.2093 7.00189 18.4976 7.0304 18.7759 6.9752C19.0541 6.92 19.3097 6.78357 19.5104 6.58317C19.7111 6.38277 19.8478 6.1274 19.9032 5.84936C19.9587 5.57131 19.9304 5.28307 19.8219 5.02109C19.7135 4.75911 19.5297 4.53515 19.2939 4.37754C19.0581 4.21993 18.7809 4.13575 18.4972 4.13564H18.4966C18.1164 4.13581 17.7518 4.28682 17.4828 4.55549C17.2139 4.82416 17.0627 5.18853 17.0624 5.56856ZM7.28761 21.6694C6.12231 21.6164 5.48894 21.4224 5.06803 21.2585C4.51 21.0413 4.11185 20.7827 3.69323 20.3649C3.27461 19.9471 3.01549 19.5495 2.7992 18.9918C2.63512 18.5713 2.44102 17.9381 2.38804 16.7734C2.3301 15.5143 2.31853 15.136 2.31853 11.9459C2.31853 8.75579 2.33106 8.37859 2.38804 7.11836C2.44111 5.95369 2.63665 5.32171 2.7992 4.89998C3.01645 4.34225 3.27519 3.94431 3.69323 3.52592C4.11127 3.10753 4.50904 2.84855 5.06803 2.63238C5.48875 2.46838 6.12231 2.27438 7.28761 2.22144C8.54747 2.16353 8.92593 2.15196 12.1163 2.15196C15.3067 2.15196 15.6856 2.16448 16.9465 2.22144C18.1118 2.27448 18.7441 2.46991 19.1661 2.63238C19.7241 2.84855 20.1222 3.10811 20.5409 3.52592C20.9595 3.94374 21.2176 4.34225 21.4349 4.89998C21.599 5.32047 21.7931 5.95369 21.846 7.11836C21.904 8.37859 21.9156 8.75579 21.9156 11.9459C21.9156 15.136 21.904 15.5132 21.846 16.7734C21.793 17.9381 21.5979 18.5711 21.4349 18.9918C21.2176 19.5495 20.9589 19.9475 20.5409 20.3649C20.1228 20.7823 19.7241 21.0413 19.1661 21.2585C18.7453 21.4225 18.1118 21.6165 16.9465 21.6694C15.6866 21.7273 15.3082 21.7389 12.1163 21.7389C8.9245 21.7389 8.54709 21.7273 7.28761 21.6694ZM7.18865 0.0723438C5.91626 0.130257 5.0468 0.331902 4.2875 0.627202C3.50113 0.932155 2.83544 1.34127 2.17023 2.00508C1.50501 2.66888 1.09672 3.33527 0.791604 4.12121C0.496144 4.88058 0.29439 5.74908 0.236445 7.02079C0.177545 8.2945 0.164062 8.7017 0.164062 11.9458C0.164062 15.1899 0.177545 15.5971 0.236445 16.8708C0.29439 18.1426 0.496144 19.011 0.791604 19.7704C1.09672 20.5559 1.50511 21.223 2.17023 21.8865C2.83535 22.55 3.50113 22.9586 4.2875 23.2644C5.04823 23.5597 5.91626 23.7613 7.18865 23.8193C8.46371 23.8772 8.87047 23.8916 12.1163 23.8916C15.3622 23.8916 15.7696 23.8781 17.044 23.8193C18.3165 23.7613 19.1854 23.5597 19.9452 23.2644C20.731 22.9586 21.3972 22.5503 22.0624 21.8865C22.7276 21.2227 23.1351 20.5559 23.441 19.7704C23.7365 19.011 23.9392 18.1425 23.9962 16.8708C24.0541 15.5962 24.0676 15.1899 24.0676 11.9458C24.0676 8.7017 24.0541 8.2945 23.9962 7.02079C23.9383 5.74899 23.7365 4.8801 23.441 4.12121C23.1351 3.33575 22.7266 2.66993 22.0624 2.00508C21.3983 1.34022 20.731 0.932155 19.9461 0.627202C19.1854 0.331902 18.3164 0.129301 17.045 0.0723438C15.7706 0.0144305 15.3631 0 12.1173 0C8.87143 0 8.46371 0.0134749 7.18865 0.0723438Z" fill="#4F3422"/>
</svg>
