<svg width="48" height="48" viewBox="0 0 48 48" fill="none" xmlns="http://www.w3.org/2000/svg">
<path d="M24 20C28.4183 20 32 16.4183 32 12C32 7.58172 28.4183 4 24 4C19.5817 4 16 7.58172 16 12C16 16.4183 19.5817 20 24 20Z" fill="white"/>
<path d="M24 44C28.4183 44 32 40.4183 32 36C32 31.5817 28.4183 28 24 28C19.5817 28 16 31.5817 16 36C16 40.4183 19.5817 44 24 44Z" fill="white"/>
<path d="M36 32C31.5817 32 28 28.4183 28 24C28 19.5817 31.5817 16 36 16C40.4183 16 44 19.5817 44 24C44 28.4183 40.4183 32 36 32Z" fill="white"/>
<path d="M4 24C4 28.4183 7.58172 32 12 32C16.4183 32 20 28.4183 20 24C20 19.5817 16.4183 16 12 16C7.58172 16 4 19.5817 4 24Z" fill="white"/>
</svg>
